<svg width="20" height="20" viewBox="0 0 20 20" fill="none" xmlns="http://www.w3.org/2000/svg">
<g id="elements">
<path id="Rectangle 17706" class="fill_none" d="M1 4C1 2.58579 1 1.87868 1.43934 1.43934C1.87868 1 2.58579 1 4 1C5.41421 1 6.12132 1 6.56066 1.43934C7 1.87868 7 2.58579 7 4C7 5.41421 7 6.12132 6.56066 6.56066C6.12132 7 5.41421 7 4 7C2.58579 7 1.87868 7 1.43934 6.56066C1 6.12132 1 5.41421 1 4Z" stroke="#555E64" stroke-width="1.8"/>
<path id="Rectangle 17708" class="fill_none" d="M1 16C1 14.5858 1 13.8787 1.43934 13.4393C1.87868 13 2.58579 13 4 13C5.41421 13 6.12132 13 6.56066 13.4393C7 13.8787 7 14.5858 7 16C7 17.4142 7 18.1213 6.56066 18.5607C6.12132 19 5.41421 19 4 19C2.58579 19 1.87868 19 1.43934 18.5607C1 18.1213 1 17.4142 1 16Z" stroke="#555E64" stroke-width="1.8"/>
<path id="Vector 6601" class="fill_none" d="M1 10L7 10" stroke="#555E64" stroke-width="1.8" stroke-linecap="round" stroke-linejoin="round"/>
<path id="Vector 6602" class="fill_none" d="M10 1V6" stroke="#555E64" stroke-width="1.8" stroke-linecap="round" stroke-linejoin="round"/>
<path id="Rectangle 17707" class="fill_none" d="M13 4C13 2.58579 13 1.87868 13.4393 1.43934C13.8787 1 14.5858 1 16 1C17.4142 1 18.1213 1 18.5607 1.43934C19 1.87868 19 2.58579 19 4C19 5.41421 19 6.12132 18.5607 6.56066C18.1213 7 17.4142 7 16 7C14.5858 7 13.8787 7 13.4393 6.56066C13 6.12132 13 5.41421 13 4Z" stroke="#555E64" stroke-width="1.8"/>
<path id="Vector" class="fill_none" d="M19 10H13C11.5858 10 10.8787 10 10.4393 10.4393C10 10.8787 10 11.5858 10 13M10 15.7692V18.5385M13 13V14.5C13 15.9464 13.7837 16 15 16C15.5523 16 16 16.4477 16 17M14 19H13M16 13C17.4142 13 18.1213 13 18.5607 13.44C19 13.8799 19 14.5881 19 16.0043C19 17.4206 19 18.1287 18.5607 18.5687C18.24 18.8898 17.7767 18.9766 17 19" stroke="#555E64" stroke-width="1.8" stroke-linecap="round"/>
</g>
</svg>
