<svg width="22" height="22" viewBox="0 0 22 22" fill="none" xmlns="http://www.w3.org/2000/svg">
<path d="M16.5 1.83333V3.66666M5.5 1.83333V3.66666" stroke="#606060" stroke-width="1.375" stroke-linecap="round" stroke-linejoin="round"/>
<path d="M10.996 11.9167H11.0043M10.996 15.5833H11.0043M14.6586 11.9167H14.6668M7.3335 11.9167H7.34172M7.3335 15.5833H7.34172" stroke="#606060" stroke-width="1.83333" stroke-linecap="round" stroke-linejoin="round"/>
<path d="M3.2085 7.33333H18.7918" stroke="#606060" stroke-width="1.375" stroke-linecap="round" stroke-linejoin="round"/>
<path d="M2.2915 11.2229C2.2915 7.22878 2.2915 5.23167 3.43928 3.99084C4.58706 2.75 6.43437 2.75 10.129 2.75H11.8707C15.5653 2.75 17.4127 2.75 18.5604 3.99084C19.7082 5.23167 19.7082 7.22878 19.7082 11.2229V11.6937C19.7082 15.6879 19.7082 17.685 18.5604 18.9259C17.4127 20.1667 15.5653 20.1667 11.8707 20.1667H10.129C6.43437 20.1667 4.58706 20.1667 3.43928 18.9259C2.2915 17.685 2.2915 15.6879 2.2915 11.6937V11.2229Z" stroke="#606060" stroke-width="1.375" stroke-linecap="round" stroke-linejoin="round"/>
<path d="M2.75 7.33333H19.25" stroke="#606060" stroke-width="1.375" stroke-linecap="round" stroke-linejoin="round"/>
</svg>
