<svg width="22" height="22" viewBox="0 0 22 22" fill="none" xmlns="http://www.w3.org/2000/svg">
<g id="elements">
<path id="Vector" class="fill_none" d="M2.77762 10.9424C1.8296 9.28931 1.37185 7.93948 1.09584 6.57121C0.687622 4.54758 1.62181 2.57081 3.16938 1.30947C3.82345 0.776383 4.57323 0.958518 4.96 1.6524L5.83318 3.21891C6.52529 4.46057 6.87134 5.08139 6.8027 5.73959C6.73407 6.39779 6.26737 6.93386 5.33397 8.00601L2.77762 10.9424ZM2.77762 10.9424C4.69651 14.2883 7.70784 17.3013 11.0576 19.2224M11.0576 19.2224C12.7107 20.1704 14.0605 20.6282 15.4288 20.9042C17.4524 21.3124 19.4292 20.3782 20.6905 18.8306C21.2236 18.1766 21.0415 17.4268 20.3476 17.04L18.7811 16.1668C17.5394 15.4747 16.9186 15.1287 16.2604 15.1973C15.6022 15.2659 15.0661 15.7326 13.994 16.666L11.0576 19.2224Z" stroke="#555E64" stroke-width="1.8" stroke-linejoin="round"/>
<path id="Vector_2" class="fill_none" d="M11 6H11.8571C12.2612 6 12.4632 6 12.5888 6.12204C12.7143 6.24408 12.7143 6.4405 12.7143 6.83333C12.7143 7.61901 12.7143 8.01184 12.4632 8.25592C12.2723 8.44155 11.9929 8.486 11.5145 8.49665C11.2692 8.50211 11.1465 8.50484 11.0732 8.5777C11 8.65056 11 8.76704 11 9V10.1667C11 10.5595 11 10.7559 11.1255 10.878C11.2511 11 11.4531 11 11.8571 11H12.7143M17 6V8.5M17 8.5H15.5429C15.2196 8.5 15.058 8.5 14.9576 8.40237C14.8571 8.30474 14.8571 8.1476 14.8571 7.83333V6M17 8.5V11" stroke="#555E64" stroke-width="1.8" stroke-linecap="round" stroke-linejoin="round"/>
<path id="Ellipse 1568" class="fill_none" d="M9 3.30518C9.08903 3.20518 9.18148 3.10717 9.27737 3.01129C11.9591 0.329571 16.307 0.329571 18.9887 3.01129C21.6704 5.693 21.6704 10.0409 18.9887 12.7226C18.8928 12.8185 18.7948 12.911 18.6948 13" stroke="#555E64" stroke-width="1.8" stroke-linecap="round"/>
</g>
</svg>
