<svg width="23" height="23" viewBox="0 0 23 23" fill="none" xmlns="http://www.w3.org/2000/svg">
<path d="M10.5415 4.79167H17.2498" stroke="#606060" stroke-width="1.4375" stroke-linecap="round" stroke-linejoin="round"/>
<path d="M9.5835 9.58333L13.896 13.8958" stroke="#606060" stroke-width="1.4375" stroke-linecap="round" stroke-linejoin="round"/>
<path d="M4.7915 10.5417V17.25" stroke="#606060" stroke-width="1.4375" stroke-linecap="round" stroke-linejoin="round"/>
<path d="M6.17576 10.4352C8.52808 10.4352 10.435 8.52825 10.435 6.17593C10.435 3.8236 8.52808 1.91667 6.17576 1.91667C3.82344 1.91667 1.9165 3.8236 1.9165 6.17593C1.9165 8.52825 3.82344 10.4352 6.17576 10.4352Z" stroke="#606060" stroke-width="1.4375"/>
<path d="M4.79167 21.0833C5.85021 21.0833 6.70833 20.2252 6.70833 19.1667C6.70833 18.1081 5.85021 17.25 4.79167 17.25C3.73312 17.25 2.875 18.1081 2.875 19.1667C2.875 20.2252 3.73312 21.0833 4.79167 21.0833Z" stroke="#606060" stroke-width="1.4375"/>
<path d="M15.3332 17.25C16.3917 17.25 17.2498 16.3919 17.2498 15.3333C17.2498 14.2748 16.3917 13.4167 15.3332 13.4167C14.2746 13.4167 13.4165 14.2748 13.4165 15.3333C13.4165 16.3919 14.2746 17.25 15.3332 17.25Z" stroke="#606060" stroke-width="1.4375"/>
<path d="M19.1667 6.70833C20.2252 6.70833 21.0833 5.85021 21.0833 4.79167C21.0833 3.73312 20.2252 2.875 19.1667 2.875C18.1081 2.875 17.25 3.73312 17.25 4.79167C17.25 5.85021 18.1081 6.70833 19.1667 6.70833Z" stroke="#606060" stroke-width="1.4375"/>
</svg>
