<svg width="21" height="22" viewBox="0 0 21 22" fill="none" xmlns="http://www.w3.org/2000/svg">
<path d="M3.0625 10.125C2.33762 10.125 1.75 9.53735 1.75 8.8125C1.75 8.08762 2.33762 7.5 3.0625 7.5H3.72053C4.4976 4.48086 7.23828 2.25 10.5 2.25C13.7617 2.25 16.5024 4.48086 17.2795 7.5H17.5C18.2249 7.5 18.8125 8.08762 18.8125 8.8125C18.8125 9.53735 18.2249 10.125 17.5 10.125H17.4458C17.0153 13.578 14.0696 16.25 10.5 16.25C6.93033 16.25 3.98474 13.578 3.55415 10.125H3.0625Z" stroke="#606060" stroke-width="1.25" stroke-linecap="square"/>
<path d="M3.9375 7.5H5.25C8.1495 7.5 10.5 5.1495 10.5 2.25" stroke="#606060" stroke-width="1.25" stroke-linecap="square"/>
<path d="M17.0625 7.5H15.75C12.8505 7.5 10.5 5.1495 10.5 2.25" stroke="#606060" stroke-width="1.25" stroke-linecap="square"/>
<path d="M10.5 13.625C10.9833 13.625 11.375 13.2333 11.375 12.75H9.625C9.625 13.2333 10.0167 13.625 10.5 13.625Z" stroke="#606060" stroke-width="1.25" stroke-linecap="square"/>
<path d="M15.75 19.75C15.75 18.182 15.0626 16.7745 13.9726 15.8125M5.25 19.75C5.25 18.182 5.93743 16.7745 7.02735 15.8125" stroke="#606060" stroke-width="1.25" stroke-linecap="square"/>
<path d="M7.875 9.25V9.25833" stroke="#606060" stroke-width="1.66667" stroke-linecap="round"/>
<path d="M13.125 9.25V9.25833" stroke="#606060" stroke-width="1.66667" stroke-linecap="round"/>
</svg>
