<svg width="26" height="26" viewBox="0 0 26 26" fill="none" xmlns="http://www.w3.org/2000/svg">
<path fill-rule="evenodd" clip-rule="evenodd" d="M2.1665 7.58333C2.1665 6.98503 2.65153 6.5 3.24984 6.5H6.49984C7.09814 6.5 7.58317 6.98503 7.58317 7.58333C7.58317 8.18164 7.09814 8.66667 6.49984 8.66667H3.24984C2.65153 8.66667 2.1665 8.18164 2.1665 7.58333Z" fill="white"/>
<path fill-rule="evenodd" clip-rule="evenodd" d="M2.1665 18.4167C2.1665 17.8183 2.65153 17.3333 3.24984 17.3333H9.74984C10.3481 17.3333 10.8332 17.8183 10.8332 18.4167C10.8332 19.015 10.3481 19.5 9.74984 19.5H3.24984C2.65153 19.5 2.1665 19.015 2.1665 18.4167Z" fill="white"/>
<path fill-rule="evenodd" clip-rule="evenodd" d="M18.4165 18.4167C18.4165 17.8183 18.9015 17.3333 19.4998 17.3333H22.7498C23.3482 17.3333 23.8332 17.8183 23.8332 18.4167C23.8332 19.015 23.3482 19.5 22.7498 19.5H19.4998C18.9015 19.5 18.4165 19.015 18.4165 18.4167Z" fill="white"/>
<path fill-rule="evenodd" clip-rule="evenodd" d="M15.1665 7.58333C15.1665 6.98503 15.6515 6.5 16.2498 6.5H22.7498C23.3482 6.5 23.8332 6.98503 23.8332 7.58333C23.8332 8.18165 23.3482 8.66667 22.7498 8.66667H16.2498C15.6515 8.66667 15.1665 8.18164 15.1665 7.58333Z" fill="white"/>
<path fill-rule="evenodd" clip-rule="evenodd" d="M9.72265 3.52083H9.77736C10.2589 3.52082 10.6608 3.52082 10.9909 3.54333C11.3344 3.56677 11.6588 3.6173 11.9734 3.7476C12.7034 4.04997 13.2834 4.62993 13.5858 5.35992C13.7161 5.67451 13.7666 5.999 13.79 6.34252C13.8125 6.67252 13.8125 7.07447 13.8125 7.55596V7.61069C13.8125 8.09219 13.8125 8.49414 13.79 8.82415C13.7666 9.16767 13.7161 9.49215 13.5858 9.80674C13.2834 10.5367 12.7034 11.1167 11.9734 11.4191C11.6588 11.5494 11.3344 11.5999 10.9909 11.6233C10.6608 11.6458 10.2589 11.6458 9.77737 11.6458H9.72264C9.24114 11.6458 8.83919 11.6458 8.50919 11.6233C8.16567 11.5999 7.84118 11.5494 7.52659 11.4191C6.79661 11.1167 6.21664 10.5367 5.91427 9.80674C5.78397 9.49215 5.73344 9.16767 5.71 8.82415C5.68749 8.49414 5.68749 8.09218 5.6875 7.61068V7.55597C5.68749 7.07448 5.68749 6.67252 5.71 6.34252C5.73344 5.999 5.78397 5.67451 5.91427 5.35992C6.21664 4.62993 6.79661 4.04997 7.52659 3.7476C7.84118 3.6173 8.16567 3.56677 8.50919 3.54333C8.83919 3.52082 9.24115 3.52082 9.72265 3.52083Z" fill="white"/>
<path fill-rule="evenodd" clip-rule="evenodd" d="M16.2226 14.3542H16.2774C16.7588 14.3542 17.1609 14.3542 17.4908 14.3767C17.8344 14.4001 18.1588 14.4506 18.4734 14.5809C19.2034 14.8833 19.7834 15.4633 20.0858 16.1932C20.2161 16.5078 20.2666 16.8323 20.29 17.1758C20.3125 17.5058 20.3125 17.9078 20.3125 18.3893V18.4441C20.3125 18.9255 20.3125 19.3275 20.29 19.6575C20.2666 20.001 20.2161 20.3255 20.0858 20.6401C19.7834 21.3701 19.2034 21.9501 18.4734 22.2524C18.1588 22.3828 17.8344 22.4332 17.4908 22.4566C17.1609 22.4792 16.7588 22.4792 16.2774 22.4792H16.2226C15.7412 22.4792 15.3391 22.4792 15.0092 22.4566C14.6656 22.4332 14.3412 22.3828 14.0266 22.2524C13.2966 21.9501 12.7166 21.3701 12.4142 20.6401C12.2839 20.3255 12.2334 20.001 12.21 19.6575C12.1875 19.3275 12.1875 18.9255 12.1875 18.4441V18.3893C12.1875 17.9078 12.1875 17.5058 12.21 17.1758C12.2334 16.8323 12.2839 16.5078 12.4142 16.1932C12.7166 15.4633 13.2966 14.8833 14.0266 14.5809C14.3412 14.4506 14.6656 14.4001 15.0092 14.3767C15.3391 14.3542 15.7412 14.3542 16.2226 14.3542Z" fill="white"/>
</svg>
