<svg width="18" height="20" viewBox="0 0 18 20" fill="none" xmlns="http://www.w3.org/2000/svg">
<g id="elements">
<path id="Vector" d="M6.08366 13.3335C6.50507 13.7431 8.16699 14.8333 8.16699 15.4168M6.08366 17.5002C6.50507 17.0906 8.16699 16.0004 8.16699 15.4168M8.16699 15.4168L1.50033 15.4168" stroke="white" stroke-width="1.5" stroke-linecap="round" stroke-linejoin="round"/>
<path id="Rectangle 2174" d="M9.83301 18.3335H10.0603C12.778 18.3335 14.1368 18.3335 15.0804 17.6686C15.3508 17.4781 15.5909 17.2522 15.7933 16.9978C16.4997 16.1096 16.4997 14.8307 16.4997 12.2729V10.1517C16.4997 7.68237 16.4997 6.44771 16.1089 5.46162C15.4807 3.87635 14.1521 2.6259 12.4677 2.03462C11.42 1.66683 10.1082 1.66683 7.48452 1.66683C5.9853 1.66683 5.23569 1.66683 4.63699 1.877C3.6745 2.21487 2.9153 2.92941 2.55631 3.83528C2.33301 4.39876 2.33301 5.10428 2.33301 6.51531V10.8335" stroke="white" stroke-width="1.5" stroke-linecap="round" stroke-linejoin="round"/>
<path id="Vector_2" d="M16.5003 10C16.5003 8.46588 15.2567 7.22222 13.7225 7.22222C13.1677 7.22222 12.5136 7.31944 11.9742 7.1749C11.4949 7.04647 11.1205 6.6721 10.9921 6.1928C10.8476 5.65336 10.9448 4.99926 10.9448 4.44444C10.9448 2.91032 9.70112 1.66667 8.16699 1.66667" stroke="white" stroke-width="1.5" stroke-linecap="round" stroke-linejoin="round"/>
</g>
</svg>
