<svg width="22" height="22" viewBox="0 0 22 22" fill="none" xmlns="http://www.w3.org/2000/svg">
<path d="M11.0002 20.1667C16.0628 20.1667 20.1668 16.0626 20.1668 11C20.1668 5.93739 16.0628 1.83334 11.0002 1.83334C5.93755 1.83334 1.8335 5.93739 1.8335 11C1.8335 16.0626 5.93755 20.1667 11.0002 20.1667Z" stroke="#606060" stroke-width="1.375" stroke-linejoin="round"/>
<path d="M12.8335 5.25975C12.8335 5.25975 11.8113 5.71824 11.0934 5.36847C10.2177 4.94192 9.34933 3.15901 11.0839 1.83334" stroke="#606060" stroke-width="1.375" stroke-linejoin="round"/>
<path d="M7.34172 8.25H7.3335M14.6668 8.25H14.6586" stroke="#606060" stroke-width="1.83333" stroke-linecap="round" stroke-linejoin="round"/>
<path d="M7.3335 13.75C8.16961 14.8632 9.50077 15.5833 11.0002 15.5833C12.4996 15.5833 13.8307 14.8632 14.6668 13.75" stroke="#606060" stroke-width="1.375" stroke-linejoin="round"/>
</svg>
