<svg width="23" height="23" viewBox="0 0 23 23" fill="none" xmlns="http://www.w3.org/2000/svg">
<path d="M12.6478 7.66667H10.3522C7.05176 7.66667 4.82656 11.0981 6.12666 14.1828C6.30777 14.6124 6.72328 14.8911 7.18304 14.8911H7.99146C8.26396 14.8911 8.50148 15.0796 8.56757 15.3484L9.60834 19.5814C9.82531 20.4642 10.6052 21.0833 11.5 21.0833C12.3948 21.0833 13.1747 20.4642 13.3917 19.5814L14.4324 15.3484C14.4985 15.0796 14.736 14.8911 15.0086 14.8911H15.817C16.2767 14.8911 16.6922 14.6124 16.8734 14.1828C18.1734 11.0981 15.9482 7.66667 12.6478 7.66667Z" stroke="#606060" stroke-width="1.4375"/>
<path d="M11.5 7.66667C13.0878 7.66667 14.375 6.37949 14.375 4.79167C14.375 3.20385 13.0878 1.91667 11.5 1.91667C9.91218 1.91667 8.625 3.20385 8.625 4.79167C8.625 6.37949 9.91218 7.66667 11.5 7.66667Z" stroke="#606060" stroke-width="1.4375"/>
</svg>
