<svg width="23" height="23" viewBox="0 0 23 23" fill="none" xmlns="http://www.w3.org/2000/svg">
<path d="M13.0503 20.4767C12.6348 20.8658 12.0792 21.0833 11.5011 21.0833C10.9229 21.0833 10.3674 20.8658 9.95181 20.4767C6.14581 16.8916 1.04531 12.8866 3.53268 7.07218C4.87756 3.92837 8.10591 1.91667 11.5011 1.91667C14.8962 1.91667 18.1246 3.92837 19.4695 7.07218C21.9537 12.8793 16.8657 16.904 13.0503 20.4767Z" stroke="#606060" stroke-width="1.4375"/>
<path d="M14.8543 10.5417C14.8543 12.3941 13.3526 13.8958 11.5002 13.8958C9.6477 13.8958 8.146 12.3941 8.146 10.5417C8.146 8.68921 9.6477 7.1875 11.5002 7.1875C13.3526 7.1875 14.8543 8.68921 14.8543 10.5417Z" stroke="#606060" stroke-width="1.4375"/>
</svg>
