<svg width="25" height="26" viewBox="0 0 25 26" fill="none" xmlns="http://www.w3.org/2000/svg">
<path d="M13.021 3.625H11.9793C7.31439 3.625 4.98192 3.625 3.5327 5.07421C2.0835 6.52343 2.0835 8.8559 2.0835 13.5208C2.0835 18.1857 2.0835 20.5182 3.5327 21.9675C4.98192 23.4167 7.31439 23.4167 11.9793 23.4167C16.6442 23.4167 18.9767 23.4167 20.426 21.9675C21.8752 20.5182 21.8752 18.1857 21.8752 13.5208V12.4792" stroke="white" stroke-width="1.5625" stroke-linecap="round"/>
<path d="M22.9167 6.22917C22.9167 8.24271 21.2844 9.875 19.2708 9.875C17.2573 9.875 15.625 8.24271 15.625 6.22917C15.625 4.21563 17.2573 2.58334 19.2708 2.58334C21.2844 2.58334 22.9167 4.21563 22.9167 6.22917Z" stroke="white" stroke-width="1.5625"/>
<path d="M7.2915 11.9583H11.4582" stroke="white" stroke-width="1.5625" stroke-linecap="round" stroke-linejoin="round"/>
<path d="M7.2915 17.1667H15.6248" stroke="white" stroke-width="1.5625" stroke-linecap="round" stroke-linejoin="round"/>
</svg>
