<svg width="23" height="23" viewBox="0 0 23 23" fill="none" xmlns="http://www.w3.org/2000/svg">
<path d="M1.9165 19.1667V6.72916C1.9165 4.89197 1.9165 3.83341 2.33712 3.83341C2.83646 3.83341 3.19618 4.46616 4.07307 6.01156L10.3016 16.9885C11.1785 18.5339 11.5222 19.1667 12.0376 19.1667C12.4582 19.1667 12.4582 18.1081 12.4582 16.271V3.83334" stroke="#606060" stroke-width="1.4375" stroke-linecap="round" stroke-linejoin="round"/>
<path d="M15.3335 12.4583H21.0835" stroke="#606060" stroke-width="1.4375" stroke-linecap="round" stroke-linejoin="round"/>
<path d="M15.8899 4.38993C16.6316 3.6481 19.7853 3.6481 20.5271 4.38993C21.2689 5.13176 21.2689 8.28536 20.5271 9.02718C19.7853 9.76905 16.6316 9.76905 15.8899 9.02718C15.148 8.28536 15.148 5.13176 15.8899 4.38993Z" stroke="#606060" stroke-width="1.4375" stroke-linecap="round" stroke-linejoin="round"/>
</svg>
