<svg width="26" height="30" viewBox="0 0 26 30" fill="none" xmlns="http://www.w3.org/2000/svg">
<g id="elements">
<path id="Vector" d="M5.7701 19.642C3.88374 20.7652 -1.06218 23.0587 1.95022 25.9286C3.42175 27.3305 5.06065 28.3332 7.12116 28.3332H18.8788C20.9393 28.3332 22.5783 27.3305 24.0498 25.9286C27.0622 23.0587 22.1163 20.7652 20.2299 19.6419C15.8064 17.008 10.1936 17.008 5.7701 19.642Z" stroke="#141B34" stroke-width="1.5" stroke-linecap="round" stroke-linejoin="round"/>
<path id="Ellipse 1381" d="M19 7.6665C19 10.9802 16.3137 13.6665 13 13.6665C9.68629 13.6665 7 10.9802 7 7.6665C7 4.3528 9.68629 1.6665 13 1.6665C16.3137 1.6665 19 4.3528 19 7.6665Z" stroke="#141B34" stroke-width="1.5"/>
</g>
</svg>
