<svg width="13" height="14" viewBox="0 0 13 14" fill="none" xmlns="http://www.w3.org/2000/svg">
<path fill-rule="evenodd" clip-rule="evenodd" d="M0.411452 1.0219C0.835372 0.597967 1.52269 0.597967 1.94661 1.0219L6.38956 5.46481L10.8325 1.0219C11.2565 0.597967 11.9437 0.597967 12.3677 1.0219C12.7916 1.44582 12.7916 2.13314 12.3677 2.55706L7.92475 7L12.3677 11.4429C12.7916 11.8669 12.7916 12.5542 12.3677 12.9781C11.9437 13.402 11.2565 13.402 10.8325 12.9781L6.38956 8.5352L1.94661 12.9781C1.52269 13.402 0.835372 13.402 0.411452 12.9781C-0.0124763 12.5542 -0.0124763 11.8669 0.411452 11.4429L4.85436 7L0.411452 2.55706C-0.0124763 2.13314 -0.0124763 1.44582 0.411452 1.0219Z" fill="#E31E27"/>
</svg>
