<svg width="22" height="22" viewBox="0 0 22 22" fill="none" xmlns="http://www.w3.org/2000/svg">
<g id="elements">
<path id="Vector 5346" class="fill_none" d="M7 21H5C3.11438 21 2.17157 21 1.58579 20.4142C1 19.8284 1 18.8856 1 17V15C1 13.1144 1 12.1716 1.58579 11.5858C2.17157 11 3.11438 11 5 11H7C8.88562 11 9.82843 11 10.4142 11.5858C11 12.1716 11 13.1144 11 15V17C11 18.8856 11 19.8284 10.4142 20.4142C9.82843 21 8.88562 21 7 21Z" stroke="#555E64" stroke-width="1.8" stroke-linecap="round" stroke-linejoin="round"/>
<path id="Vector 6156" class="fill_none" d="M5 14L7 14" stroke="#555E64" stroke-width="1.8" stroke-linecap="round" stroke-linejoin="round"/>
<path id="Vector" class="fill_none" d="M17 1C14.7909 1 13 2.80892 13 5.04033C13 6.31626 13.5 7.30834 14.5 8.1945C15.2049 8.81911 16.0588 9.85657 16.5714 10.6975C16.8173 11.1008 17.165 11.1008 17.4286 10.6975C17.9672 9.87329 18.7951 8.81911 19.5 8.1945C20.5 7.30834 21 6.31626 21 5.04033C21 2.80892 19.2091 1 17 1Z" stroke="#555E64" stroke-width="1.8" stroke-linejoin="round"/>
<path id="Vector 5370" class="fill_none" d="M17 14V17C17 18.8856 17 19.8284 16.5314 20.4142C16.0839 20.9735 15.3761 20.9988 14 20.9999" stroke="#555E64" stroke-width="1.8" stroke-linecap="round" stroke-linejoin="round"/>
<path id="Vector_2" class="fill_none" d="M17.0078 5L16.9988 5" stroke="#555E64" stroke-width="1.8" stroke-linecap="round" stroke-linejoin="round"/>
</g>
</svg>
