<svg width="20" height="20" viewBox="0 0 20 20" fill="none" xmlns="http://www.w3.org/2000/svg">
<path d="M16.6668 15V5M5.00016 16.6667H15.0002M15.0002 3.33334H5.00016M3.3335 5V15" stroke="#606060" stroke-width="1.25" stroke-linecap="round" stroke-linejoin="round"/>
<path d="M6.66584 8.33333C6.42093 7.02606 7.27836 6.71623 9.96367 6.66666M9.96367 6.66666C12.4612 6.72279 13.4906 6.92111 13.2615 8.33333M9.96367 6.66666V13.3333M8.727 13.3333H11.2004" stroke="#606060" stroke-width="1.25" stroke-linecap="round" stroke-linejoin="round"/>
<path d="M17.5 1.66666H15.8333C15.3731 1.66666 15 2.03976 15 2.5V4.16666C15 4.6269 15.3731 5 15.8333 5H17.5C17.9602 5 18.3333 4.6269 18.3333 4.16666V2.5C18.3333 2.03976 17.9602 1.66666 17.5 1.66666Z" stroke="#606060" stroke-width="1.25"/>
<path d="M4.1665 1.66666H2.49984C2.0396 1.66666 1.6665 2.03976 1.6665 2.5V4.16666C1.6665 4.6269 2.0396 5 2.49984 5H4.1665C4.62674 5 4.99984 4.6269 4.99984 4.16666V2.5C4.99984 2.03976 4.62674 1.66666 4.1665 1.66666Z" stroke="#606060" stroke-width="1.25"/>
<path d="M17.5 15H15.8333C15.3731 15 15 15.3731 15 15.8333V17.5C15 17.9602 15.3731 18.3333 15.8333 18.3333H17.5C17.9602 18.3333 18.3333 17.9602 18.3333 17.5V15.8333C18.3333 15.3731 17.9602 15 17.5 15Z" stroke="#606060" stroke-width="1.25"/>
<path d="M4.1665 15H2.49984C2.0396 15 1.6665 15.3731 1.6665 15.8333V17.5C1.6665 17.9602 2.0396 18.3333 2.49984 18.3333H4.1665C4.62674 18.3333 4.99984 17.9602 4.99984 17.5V15.8333C4.99984 15.3731 4.62674 15 4.1665 15Z" stroke="#606060" stroke-width="1.25"/>
</svg>
